<?xml version="1.0" encoding="UTF-8" standalone="no"?>
<!-- Created with Inkscape (http://www.inkscape.org/) -->

<svg
   xmlns:dc="http://purl.org/dc/elements/1.1/"
   xmlns:cc="http://creativecommons.org/ns#"
   xmlns:rdf="http://www.w3.org/1999/02/22-rdf-syntax-ns#"
   xmlns:svg="http://www.w3.org/2000/svg"
   xmlns="http://www.w3.org/2000/svg"
   xmlns:sodipodi="http://sodipodi.sourceforge.net/DTD/sodipodi-0.dtd"
   xmlns:inkscape="http://www.inkscape.org/namespaces/inkscape"
   width="116.7193mm"
   height="279.89954mm"
   viewBox="0 0 116.7193 279.89954"
   version="1.1"
   id="svg8"
   inkscape:version="0.92.4 (unknown)"
   sodipodi:docname="side_art.svg">
  <defs
     id="defs2" />
  <sodipodi:namedview
     id="base"
     pagecolor="#ffffff"
     bordercolor="#666666"
     borderopacity="1.0"
     inkscape:pageopacity="0.0"
     inkscape:pageshadow="2"
     inkscape:zoom="0.25"
     inkscape:cx="659.13521"
     inkscape:cy="570.43272"
     inkscape:document-units="mm"
     inkscape:current-layer="layer1"
     showgrid="false"
     inkscape:window-width="1366"
     inkscape:window-height="711"
     inkscape:window-x="0"
     inkscape:window-y="0"
     inkscape:window-maximized="1"
     showguides="true"
     inkscape:guide-bbox="true"
     fit-margin-top="0"
     fit-margin-left="0"
     fit-margin-right="0"
     fit-margin-bottom="0" />
  <metadata
     id="metadata5">
    <rdf:RDF>
      <cc:Work
         rdf:about="">
        <dc:format>image/svg+xml</dc:format>
        <dc:type
           rdf:resource="http://purl.org/dc/dcmitype/StillImage" />
        <dc:title></dc:title>
      </cc:Work>
    </rdf:RDF>
  </metadata>
  <g
     inkscape:label="Capa 1"
     inkscape:groupmode="layer"
     id="layer1"
     transform="translate(-82.020095,-9.9507115)">
    <g
       id="g7163"
       transform="matrix(4.4450554,0,0,4.4450554,-2.1193095,-404.42899)">
      <path
         id="rect826"
         d="m 19.588614,93.222931 h 24.938532 c 0.362095,0 0.6536,0.291505 0.6536,0.6536 v 61.125489 c 0,0.3621 -0.291505,0.6536 -0.6536,0.6536 H 19.588614 c -0.362094,0 -0.653599,-0.2915 -0.653599,-0.6536 V 93.876531 c 0,-0.362095 0.291505,-0.6536 0.653599,-0.6536 z"
         style="opacity:1;fill:#bff5f7;fill-opacity:1;stroke:none;stroke-width:0.04510439;stroke-linecap:round;stroke-miterlimit:4;stroke-dasharray:none;stroke-dashoffset:0;stroke-opacity:1"
         inkscape:connector-curvature="0" />
      <path
         id="rect826-3"
         d="m 19.570326,93.222618 h 24.975107 c 0.352136,0 0.635624,0.283488 0.635624,0.635624 v 59.444398 c 0,0.35213 -0.283488,0.63562 -0.635624,0.63562 H 19.570326 c -0.352136,0 -0.635624,-0.28349 -0.635624,-0.63562 V 93.858242 c 0,-0.352136 0.283488,-0.635624 0.635624,-0.635624 z"
         style="opacity:1;fill:#ffffff;fill-opacity:1;stroke:none;stroke-width:0.04448035;stroke-linecap:round;stroke-miterlimit:4;stroke-dasharray:none;stroke-dashoffset:0;stroke-opacity:1"
         inkscape:connector-curvature="0" />
      <path
         id="rect845"
         d="m 18.928764,111.38071 h 26.258232 v 0.4318 H 18.928764 Z"
         style="opacity:1;fill:#d0d0d0;fill-opacity:1;stroke:none;stroke-width:0.0327684;stroke-linecap:round;stroke-miterlimit:4;stroke-dasharray:none;stroke-dashoffset:0;stroke-opacity:1"
         inkscape:connector-curvature="0" />
      <path
         id="rect847"
         d="m 119.4444,-21.851593 h 26.90061 c 0.25374,0 0.45801,0.204273 0.45801,0.45801 0,0.253738 -0.20427,0.458011 -0.45801,0.458011 H 119.4444 c -0.25374,0 -0.45801,-0.204273 -0.45801,-0.458011 0,-0.253737 0.20427,-0.45801 0.45801,-0.45801 z"
         style="opacity:1;fill:#e5e6e8;fill-opacity:1;stroke:#dbdcde;stroke-width:0.226;stroke-linecap:round;stroke-miterlimit:4;stroke-dasharray:none;stroke-dashoffset:0;stroke-opacity:1"
         transform="rotate(90)"
         inkscape:connector-curvature="0" />
      <path
         id="rect845-6"
         d="m 18.928764,94.819641 h 26.258232 v 0.431801 H 18.928764 Z"
         style="opacity:1;fill:#d0d0d0;fill-opacity:1;stroke:none;stroke-width:0.03276839;stroke-linecap:round;stroke-miterlimit:4;stroke-dasharray:none;stroke-dashoffset:0;stroke-opacity:1"
         inkscape:connector-curvature="0" />
      <path
         id="rect847-7"
         d="m 99.598655,-21.858673 h 7.434845 c 0.25701,0 0.46392,0.206908 0.46392,0.46392 0,0.257012 -0.20691,0.46392 -0.46392,0.46392 h -7.434845 c -0.257012,0 -0.46392,-0.206908 -0.46392,-0.46392 0,-0.257012 0.206908,-0.46392 0.46392,-0.46392 z"
         style="opacity:1;fill:#e6e7e9;fill-opacity:1;stroke:#dbdcde;stroke-width:0.226;stroke-linecap:round;stroke-miterlimit:4;stroke-dasharray:none;stroke-dashoffset:0;stroke-opacity:1"
         transform="rotate(90)"
         inkscape:connector-curvature="0" />
      <path
         id="rect879"
         d="m 20.29478,155.66478 v 0.39326 c 0,0.074 0.05981,0.13332 0.133842,0.13332 h 2.590023 c 0.07404,0 0.133842,-0.0593 0.133842,-0.13332 v -0.39326 z"
         style="opacity:1;fill:#5e787c;fill-opacity:1;stroke:none;stroke-width:0.02533075;stroke-linecap:round;stroke-miterlimit:4;stroke-dasharray:none;stroke-dashoffset:0;stroke-opacity:1"
         inkscape:connector-curvature="0" />
      <path
         id="rect879-5"
         d="m 41.037185,155.66478 v 0.39326 c 0,0.074 0.05929,0.13332 0.133323,0.13332 h 2.590541 c 0.07403,0 0.133324,-0.0593 0.133324,-0.13332 v -0.39326 z"
         style="opacity:1;fill:#5e787c;fill-opacity:1;stroke:none;stroke-width:0.02533075;stroke-linecap:round;stroke-miterlimit:4;stroke-dasharray:none;stroke-dashoffset:0;stroke-opacity:1"
         inkscape:connector-curvature="0" />
    </g>
  </g>
</svg>
