<?xml version="1.0" encoding="UTF-8" standalone="no"?>
<!-- Created with Inkscape (http://www.inkscape.org/) -->

<svg
   xmlns:dc="http://purl.org/dc/elements/1.1/"
   xmlns:cc="http://creativecommons.org/ns#"
   xmlns:rdf="http://www.w3.org/1999/02/22-rdf-syntax-ns#"
   xmlns:svg="http://www.w3.org/2000/svg"
   xmlns="http://www.w3.org/2000/svg"
   xmlns:sodipodi="http://sodipodi.sourceforge.net/DTD/sodipodi-0.dtd"
   xmlns:inkscape="http://www.inkscape.org/namespaces/inkscape"
   width="277.0939mm"
   height="317.48114mm"
   viewBox="0 0 277.0939 317.48114"
   version="1.1"
   id="svg8"
   inkscape:version="0.92.4 (unknown)"
   sodipodi:docname="logo_nerdify.svg">
  <defs
     id="defs2" />
  <sodipodi:namedview
     id="base"
     pagecolor="#ffffff"
     bordercolor="#666666"
     borderopacity="1.0"
     inkscape:pageopacity="0.0"
     inkscape:pageshadow="2"
     inkscape:zoom="0.24748737"
     inkscape:cx="524.31968"
     inkscape:cy="543.01398"
     inkscape:document-units="mm"
     inkscape:current-layer="layer1"
     showgrid="false"
     fit-margin-top="0"
     fit-margin-left="0"
     fit-margin-right="0"
     fit-margin-bottom="0"
     inkscape:window-width="1366"
     inkscape:window-height="711"
     inkscape:window-x="0"
     inkscape:window-y="0"
     inkscape:window-maximized="1" />
  <metadata
     id="metadata5">
    <rdf:RDF>
      <cc:Work
         rdf:about="">
        <dc:format>image/svg+xml</dc:format>
        <dc:type
           rdf:resource="http://purl.org/dc/dcmitype/StillImage" />
        <dc:title></dc:title>
      </cc:Work>
    </rdf:RDF>
  </metadata>
  <g
     inkscape:label="Capa 1"
     inkscape:groupmode="layer"
     id="layer1"
     transform="translate(-228.71055,20.485933)">
    <path
       style="fill:#3a3a3a;fill-opacity:1;stroke-width:0.26458332"
       d="m 365.43305,296.75602 c -0.13824,-0.13419 -1.08479,-0.30289 -2.10344,-0.37489 -2.36999,-0.1675 -4.70622,-0.57803 -9.26041,-1.62732 -1.01865,-0.23468 -2.18097,-0.49387 -2.58293,-0.57597 -0.40196,-0.0821 -0.79594,-0.25461 -0.87551,-0.38335 -0.0796,-0.12875 -0.43691,-0.23408 -0.7941,-0.23408 -0.35719,0 -0.85618,-0.1153 -1.10887,-0.25625 -0.25268,-0.14094 -0.99521,-0.43074 -1.65005,-0.64402 -1.62925,-0.53062 -5.55595,-1.95239 -6.28385,-2.27526 -0.32743,-0.14523 -0.86321,-0.36854 -1.19063,-0.49625 -3.32452,-1.29667 -15.57593,-7.51898 -15.76476,-8.00666 -0.0485,-0.12531 -0.31639,-0.22781 -0.59531,-0.22781 -0.27891,0 -0.50712,-0.11906 -0.50712,-0.26458 0,-0.14552 -0.12161,-0.26458 -0.27025,-0.26458 -0.47879,0 -2.33624,-1.35576 -2.7751,-2.02555 -0.36433,-0.55605 -0.37574,-0.76324 -0.0792,-1.43904 0.3916,-0.89241 1.11385,-1.16501 2.46381,-0.92991 0.50893,0.0886 1.34315,0.23384 1.85382,0.32269 0.51067,0.0888 0.99395,0.26744 1.07395,0.39688 0.08,0.12943 0.49561,0.23534 0.92359,0.23534 0.42797,0 0.77813,0.11906 0.77813,0.26459 0,0.14552 0.35881,0.26458 0.79734,0.26458 0.43854,0 1.00408,0.10803 1.25677,0.24003 0.51147,0.26723 3.13074,0.91749 6.14797,1.52627 1.09141,0.22022 2.52016,0.50872 3.175,0.64112 0.65485,0.13239 1.66688,0.30887 2.24896,0.39213 0.58209,0.0833 1.29646,0.25313 1.5875,0.37741 0.29104,0.12427 1.18401,0.30122 1.98438,0.39325 0.80036,0.092 2.16958,0.27159 3.04271,0.39912 5.2703,0.76975 7.72661,0.90914 16.13958,0.91591 8.65075,0.007 10.13136,-0.0859 14.68437,-0.92078 0.80037,-0.14676 2.02076,-0.34004 2.71199,-0.42952 0.69122,-0.0895 1.25677,-0.2666 1.25677,-0.3936 0,-0.12702 0.35137,-0.23092 0.78084,-0.23092 0.42946,0 1.47126,-0.18984 2.3151,-0.42186 0.84385,-0.23201 2.01051,-0.52194 2.5926,-0.64428 0.58208,-0.12237 1.77271,-0.42215 2.64583,-0.66622 0.87313,-0.24408 1.91638,-0.50364 2.31834,-0.57682 0.40197,-0.0732 0.79595,-0.23842 0.87552,-0.36716 0.0796,-0.12875 0.4878,-0.23408 0.90718,-0.23408 0.41939,0 0.83611,-0.11906 0.92604,-0.26458 0.0899,-0.14553 0.44713,-0.26459 0.79375,-0.26459 0.34663,0 0.70382,-0.11906 0.79375,-0.26458 0.0899,-0.14552 0.39624,-0.26458 0.68067,-0.26458 0.28443,0 0.75365,-0.11907 1.04272,-0.26459 0.28906,-0.14552 0.76208,-0.38364 1.05115,-0.52916 0.28907,-0.14553 0.73555,-0.26533 0.99219,-0.26623 0.25663,0 0.80764,-0.17947 1.22446,-0.39687 0.41681,-0.21739 0.92444,-0.39524 1.12807,-0.39524 0.20362,0 0.63649,-0.13766 0.96194,-0.30588 1.24159,-0.64186 1.52249,-0.75245 1.91105,-0.75245 0.22025,0 0.40046,-0.11906 0.40046,-0.26458 0,-0.14553 0.23974,-0.26459 0.53276,-0.26459 0.29302,0 0.7395,-0.10906 0.99219,-0.24233 0.77432,-0.40844 2.38046,-1.08058 2.58215,-1.08058 0.38558,0 5.85976,-2.77831 7.26999,-3.68972 1.99462,-1.28911 2.11666,-1.43312 2.11666,-2.4977 0,-0.83568 -0.31983,-1.25759 -3.05051,-4.02394 -1.67778,-1.69971 -3.01724,-3.11952 -2.97656,-3.1551 0.0407,-0.0356 0.68717,-0.19408 1.43666,-0.35216 3.01148,-0.63516 7.1519,0.97668 9.86341,3.83979 0.88339,0.93279 1.60617,1.8107 1.60617,1.95093 0,0.14026 0.11906,0.25498 0.26458,0.25498 0.14552,0 0.26459,0.23812 0.26459,0.52917 0,0.29104 0.0931,0.52916 0.20682,0.52916 0.11375,0 0.38164,0.56555 0.59531,1.25677 0.74121,2.39784 0.38053,8.07239 -0.58356,9.18104 -0.12022,0.13825 -0.21857,0.5252 -0.21857,0.8599 0,0.3347 -0.09,0.60854 -0.2,0.60854 -0.11,0 -0.35215,0.34375 -0.53812,0.76388 -0.18597,0.42013 -0.71965,1.16311 -1.18594,1.65105 -0.69576,0.72803 -0.86373,0.80457 -0.93649,0.42675 -0.0488,-0.25323 -0.199,-0.46043 -0.33385,-0.46043 -0.13486,0 -0.24519,-0.40968 -0.24519,-0.91043 0,-0.50072 -0.11906,-0.98401 -0.26458,-1.07394 -0.14552,-0.0899 -0.26984,-0.72205 -0.27626,-1.40468 -0.006,-0.68265 -0.1678,-1.83647 -0.35861,-2.56407 -0.41059,-1.56565 -1.18268,-1.90167 -2.02326,-0.88056 -0.84618,1.02793 -0.91043,1.09191 -2.74411,2.73264 -2.84783,2.54818 -3.23659,2.88145 -4.01205,3.43958 -0.40437,0.29105 -1.00601,0.79706 -1.33698,1.12448 -0.33097,0.32742 -0.72624,0.59532 -0.87837,0.59532 -0.15214,0 -0.27661,0.11906 -0.27661,0.26458 0,0.14552 -0.16867,0.26458 -0.37483,0.26458 -0.20615,0 -0.41451,0.10012 -0.46302,0.22246 -0.12298,0.31025 -2.80163,2.15879 -3.12819,2.15879 -0.14701,0 -0.26729,0.099 -0.26729,0.21987 0,0.12094 -0.32743,0.38865 -0.72761,0.59489 -0.40018,0.20627 -0.78713,0.43749 -0.85989,0.51385 -0.0728,0.0764 -0.48948,0.36975 -0.92605,0.65198 -0.78279,0.50607 -1.22601,0.75573 -3.57187,2.012 -0.65484,0.35071 -1.23031,0.72692 -1.27882,0.83606 -0.0485,0.10914 -0.30648,0.19844 -0.57326,0.19844 -0.26679,0 -0.52476,0.0952 -0.57327,0.21156 -0.0844,0.2024 -2.34154,1.32966 -4.58611,2.29036 -0.58208,0.24913 -1.26507,0.56203 -1.51776,0.69533 -0.25269,0.13327 -0.63964,0.24233 -0.8599,0.24233 -0.22025,0 -0.40046,0.11906 -0.40046,0.26458 0,0.14552 -0.23975,0.26458 -0.53276,0.26458 -0.29302,0 -0.7395,0.10446 -0.99219,0.2321 -0.25269,0.12766 -0.93568,0.37367 -1.51776,0.54665 -0.58209,0.17301 -1.29646,0.41881 -1.5875,0.54624 -0.29104,0.12742 -1.12448,0.36443 -1.85209,0.52667 -0.7276,0.16227 -1.79916,0.40932 -2.38124,0.54899 -2.14256,0.51411 -4.01902,0.8106 -6.01928,0.95102 -1.12779,0.0792 -2.05052,0.2504 -2.05052,0.38052 0,0.31374 -8.55325,0.3066 -8.87677,-0.007 z m -1.83885,-52.68026 c -1.4208,-0.2123 -4.68979,-0.98158 -5.55625,-1.30754 -1.30836,-0.49221 -2.46438,-0.80156 -2.99535,-0.80156 -0.31709,0 -0.57653,-0.11906 -0.57653,-0.26458 0,-0.14552 -0.29927,-0.26458 -0.66505,-0.26458 -0.36577,0 -0.87179,-0.11531 -1.12448,-0.25625 -0.62645,-0.34941 -2.90109,-1.06667 -3.38268,-1.06667 -0.57079,0 -1.48564,-0.56221 -3.02251,-1.8574 -1.12561,-0.94861 -2.21289,-3.77534 -2.07808,-5.40258 0.0809,-0.977 0.11416,-1.01429 0.53047,-0.59532 0.24426,0.24583 0.67091,0.44697 0.94809,0.44697 0.27718,0 0.59289,0.0893 0.70158,0.19843 0.10869,0.10914 0.87267,0.33969 1.69774,0.51233 0.82507,0.17263 2.03591,0.4425 2.69076,0.59969 1.12761,0.2707 2.1853,0.47958 5.55625,1.09739 4.76086,0.87251 12.64779,1.1194 17.3302,0.5425 1.45521,-0.17928 3.30068,-0.39116 4.10105,-0.4708 0.80036,-0.0797 1.56831,-0.25345 1.70656,-0.38616 0.13824,-0.13272 0.75629,-0.2413 1.37345,-0.2413 0.61715,0 1.1879,-0.1065 1.26834,-0.23664 0.0804,-0.13015 0.59348,-0.29626 1.14009,-0.36915 0.54662,-0.0729 1.76775,-0.32771 2.71364,-0.56629 0.94589,-0.23858 2.01745,-0.50692 2.38125,-0.59632 0.3638,-0.0894 0.75076,-0.29363 0.8599,-0.45384 0.13753,-0.2019 0.27393,-0.17393 0.44443,0.0911 0.27998,0.43525 0.069,2.92784 -0.2801,3.30853 -0.12676,0.13824 -0.23048,0.41116 -0.23048,0.60647 0,0.36846 -0.10337,0.51541 -1.32942,1.89 -0.79555,0.89196 -3.20842,2.14019 -4.14507,2.14437 -0.31883,0.003 -0.65328,0.12166 -0.74322,0.26718 -0.0899,0.14552 -0.39623,0.26458 -0.68066,0.26458 -0.28443,0 -0.72389,0.10745 -0.97657,0.23879 -0.25269,0.13133 -0.99522,0.38108 -1.65006,0.55496 -0.65484,0.17388 -1.39737,0.42362 -1.65006,0.55496 -0.25268,0.13134 -0.75167,0.23879 -1.10886,0.23879 -0.35719,0 -0.71489,0.10591 -0.79489,0.23535 -0.08,0.12943 -0.53351,0.29943 -1.0078,0.37777 -0.47429,0.0783 -1.39813,0.27149 -2.05297,0.42928 -3.2835,0.79116 -6.47334,0.9737 -9.39271,0.53753 z m -10.98258,-82.14514 -0.006,5.02708 -1.3188,0.64738 c -0.72534,0.35605 -1.31881,0.743 -1.31881,0.85989 0,0.11689 -0.12737,0.21252 -0.28305,0.21252 -0.15569,0 -0.79321,0.35099 -1.41673,0.77998 -1.24216,0.85464 -1.18793,0.67895 -1.76012,5.70231 -0.37146,3.26117 -0.52208,4.18863 -0.77343,4.7625 -0.12747,0.29104 -0.289,0.94589 -0.35896,1.45521 -0.07,0.50932 -0.32234,1.69995 -0.56086,2.64583 -0.23851,0.94589 -0.50054,1.98945 -0.58226,2.31902 -0.0817,0.32957 -0.25345,0.66402 -0.38159,0.74322 -0.12815,0.0792 -0.233,0.43462 -0.233,0.78984 0,0.35521 -0.11906,0.64584 -0.26458,0.64584 -0.14552,0 -0.26458,0.22687 -0.26458,0.50416 0,0.43566 -0.32123,1.20853 -1.35604,3.26256 -0.12731,0.25269 -0.23146,0.62972 -0.23146,0.83785 0,0.20813 -0.0893,0.4181 -0.19844,0.46661 -0.10914,0.0485 -0.58069,0.8621 -1.04789,1.80799 -1.03313,2.09167 -1.72995,3.27776 -1.99482,3.39548 -0.10914,0.0485 -0.19843,0.19989 -0.19843,0.3364 0,0.30512 -1.3793,2.45209 -1.65365,2.57402 -0.10914,0.0485 -0.19844,0.23921 -0.19844,0.42378 0,0.18457 -0.35719,0.70935 -0.79375,1.16617 -0.43656,0.45682 -0.79375,0.9408 -0.79375,1.07552 0,0.13472 -0.0893,0.28463 -0.19844,0.33314 -0.10914,0.0485 -0.78609,0.80257 -1.50435,1.67569 -1.92706,2.34259 -7.08607,7.27653 -8.97954,8.5878 -0.30935,0.21424 -0.79327,0.60205 -1.07537,0.8618 -0.2821,0.25975 -0.66905,0.47228 -0.8599,0.47228 -0.19084,0 -0.34698,0.092 -0.34698,0.20442 0,0.11242 -0.41672,0.42883 -0.92604,0.70312 -0.50933,0.27429 -0.92604,0.59902 -0.92604,0.72162 0,0.12261 -0.18358,0.22292 -0.40794,0.22292 -0.22437,0 -0.66354,0.23813 -0.97593,0.52917 -0.3124,0.29104 -0.72414,0.52917 -0.91498,0.52917 -0.19084,0 -0.34699,0.0968 -0.34699,0.2152 0,0.11836 -0.41672,0.3787 -0.92604,0.57855 -0.50932,0.19984 -0.92604,0.46019 -0.92604,0.57855 0,0.11836 -0.14883,0.21569 -0.33073,0.2163 -0.1819,5.3e-4 -0.91646,0.29827 -1.63234,0.66146 -0.71589,0.36319 -1.46003,0.66035 -1.65365,0.66035 -0.19362,0 -0.35203,0.11907 -0.35203,0.26459 0,0.14552 -0.18435,0.26458 -0.40966,0.26458 -0.22531,0 -0.90252,0.23812 -1.5049,0.52917 -0.60239,0.29104 -1.30399,0.52916 -1.55911,0.52916 -0.25512,0 -0.52865,0.10485 -0.60785,0.233 -0.0792,0.12814 -0.41364,0.29986 -0.74322,0.38159 -0.63692,0.15796 -3.16124,0.83705 -4.70026,1.26446 -1.0429,0.28963 -3.01065,0.6679 -5.55625,1.06811 -2.04538,0.32157 -14.61387,0.60703 -14.88287,0.33803 l 1.4e-4,-4.1e-4 c -0.10283,-0.10283 -0.99321,-0.2828 -1.97861,-0.39992 -3.08304,-0.36644 -8.68693,-1.59089 -9.65941,-2.11058 -0.25269,-0.13504 -0.69917,-0.24552 -0.99219,-0.24552 -0.29301,0 -0.53275,-0.11906 -0.53275,-0.26458 0,-0.14552 -0.35719,-0.26459 -0.79375,-0.26459 -0.43657,0 -0.79375,-0.11906 -0.79375,-0.26458 0,-0.14552 -0.2311,-0.26458 -0.51355,-0.26458 -0.28246,0 -0.58714,-0.11907 -0.67708,-0.26459 -0.0899,-0.14552 -0.39462,-0.26458 -0.67707,-0.26458 -0.28245,0 -0.51355,-0.11906 -0.51355,-0.26458 0,-0.14552 -0.18405,-0.26459 -0.409,-0.26459 -0.22494,0 -0.96814,-0.29765 -1.65154,-0.66146 -0.6834,-0.3638 -1.39232,-0.66145 -1.57538,-0.66145 -0.18306,0 -0.33283,-0.11907 -0.33283,-0.26459 0,-0.14552 -0.23813,-0.26458 -0.52917,-0.26458 -0.29104,0 -0.52917,-0.11906 -0.52917,-0.26458 0,-0.14552 -0.23812,-0.26459 -0.52916,-0.26459 -0.29104,0 -0.52917,-0.11906 -0.52917,-0.26458 0,-0.14552 -0.17859,-0.26458 -0.39687,-0.26458 -0.21829,0 -0.39688,-0.099 -0.39688,-0.21988 0,-0.12093 -0.32742,-0.38882 -0.7276,-0.59531 -0.40019,-0.20649 -0.84667,-0.46641 -0.99219,-0.5776 -0.63736,-0.487 -2.28631,-1.51763 -2.42811,-1.51763 -0.0856,0 -0.34821,-0.21401 -0.58356,-0.47557 -0.23536,-0.26157 -0.84463,-0.76185 -1.35396,-1.11173 -0.50932,-0.34989 -0.98557,-0.70143 -1.05833,-0.7812 -0.0728,-0.0798 -0.84369,-0.74035 -1.71317,-1.46796 -1.92585,-1.61159 -3.20723,-2.90292 -5.11961,-5.15937 -0.80166,-0.94589 -1.53273,-1.77933 -1.62461,-1.85209 -0.0919,-0.0728 -0.45325,-0.54901 -0.80303,-1.05833 -0.34977,-0.50932 -0.71175,-0.98557 -0.80438,-1.05833 -0.0926,-0.0728 -0.60398,-0.78714 -1.13632,-1.5875 -0.53235,-0.80037 -1.08737,-1.59902 -1.23339,-1.77477 -0.14602,-0.17576 -0.26549,-0.39244 -0.26549,-0.4815 0,-0.0891 -0.35719,-0.68109 -0.79375,-1.31561 -0.43656,-0.63452 -0.79375,-1.28105 -0.79375,-1.43673 0,-0.15568 -0.11906,-0.28306 -0.26458,-0.28306 -0.14552,0 -0.26459,-0.2311 -0.26459,-0.51355 0,-0.28245 -0.10406,-0.57787 -0.23124,-0.65647 -0.31683,-0.19581 -1.62084,-2.98545 -1.62084,-3.46742 0,-0.2143 -0.11906,-0.38964 -0.26458,-0.38964 -0.14552,0 -0.26459,-0.18021 -0.26459,-0.40047 0,-0.38856 -0.11059,-0.66946 -0.75244,-1.91105 -0.16824,-0.32544 -0.30589,-0.83146 -0.30589,-1.12448 0,-0.29301 -0.11906,-0.53275 -0.26458,-0.53275 -0.14552,0 -0.26632,-0.20836 -0.26843,-0.46302 -0.002,-0.25467 -0.1958,-0.99881 -0.4304,-1.65365 -0.66997,-1.87012 -1.30734,-4.96183 -1.99089,-9.65729 -0.39297,-2.69948 -0.40065,-12.1267 -0.0119,-14.55208 0.64688,-4.03528 1.26951,-6.67826 1.6798,-7.13052 0.12541,-0.13825 0.22802,-0.40744 0.22802,-0.5982 0,-0.46117 1.10841,-2.83066 1.3766,-2.94281 0.116,-0.0485 0.2109,-0.3164 0.2109,-0.59531 0,-0.27892 0.11907,-0.50712 0.26459,-0.50712 0.14552,0 0.26458,-0.1786 0.26458,-0.39688 0,-0.21828 0.092,-0.39687 0.20442,-0.39687 0.11242,0 0.43628,-0.43055 0.71966,-0.95677 0.28339,-0.52622 1.37975,-1.82688 2.43636,-2.89037 l 1.92111,-1.93361 0.0983,-26.01536 c 0.065,-17.196508 0.19538,-26.508638 0.3847,-27.470558 0.15753,-0.80036 0.36949,-2.023486 0.47103,-2.718052 0.10154,-0.694565 0.28789,-1.326668 0.4141,-1.404678 0.12622,-0.07801 0.22949,-0.491993 0.22949,-0.919967 0,-0.427974 0.11906,-0.778134 0.26458,-0.778134 0.14553,0 0.26459,-0.299273 0.26459,-0.665049 0,-0.365776 0.10517,-0.871791 0.23371,-1.124479 0.21401,-0.420698 0.34428,-0.727572 1.06551,-2.509951 0.6933,-1.713373 2.31761,-4.89317 2.72858,-5.341556 0.25856,-0.282102 0.47011,-0.669055 0.47011,-0.859896 0,-0.190842 0.11907,-0.346985 0.26459,-0.346985 0.14552,0 0.26458,-0.132877 0.26458,-0.295281 0,-0.347323 1.59174,-2.560171 2.91042,-4.046093 2.25841,-2.544836 5.92216,-5.977376 6.37999,-5.977376 0.12902,0 0.23459,-0.119063 0.23459,-0.264584 0,-0.14552 0.15231,-0.264583 0.33847,-0.264583 0.18615,0 0.51009,-0.238125 0.71986,-0.529166 0.20978,-0.291042 0.47187,-0.529167 0.58244,-0.529167 0.11057,0 0.85248,-0.416719 1.64868,-0.926042 0.7962,-0.509323 1.57241,-0.926041 1.72492,-0.926041 0.15251,0 0.2773,-0.119063 0.2773,-0.264584 0,-0.145521 0.23812,-0.264583 0.52916,-0.264583 0.29105,0 0.52917,-0.09 0.52917,-0.199996 0,-0.197911 0.45811,-0.429339 2.51354,-1.269772 0.58209,-0.238004 1.41552,-0.592368 1.85209,-0.787477 1.11484,-0.498245 3.88714,-1.284909 6.08541,-1.726793 1.5537,-0.312311 4.78168,-0.723646 7.44986,-0.949317 l 1.8936,-0.160157 0.1381,-0.958972 c 0.29276,-2.033045 0.77376,-4.144764 0.99886,-4.385328 0.12937,-0.138245 0.23521,-0.518171 0.23521,-0.84428 0,-0.32611 0.11906,-0.666512 0.26458,-0.75645 0.14552,-0.08994 0.26458,-0.454152 0.26458,-0.809365 0,-0.355214 0.11907,-0.645843 0.26459,-0.645843 0.14552,0 0.26458,-0.167164 0.26458,-0.371475 0,-0.800735 3.68801,-7.276086 4.28408,-7.521927 0.11761,-0.04851 0.21384,-0.193328 0.21384,-0.321823 0,-0.606539 4.86782,-5.530495 7.57245,-7.659775 0.96688,-0.761198 2.73696,-1.852083 3.00521,-1.852083 0.14864,0 0.27025,-0.119062 0.27025,-0.264583 0,-0.145521 0.22821,-0.264583 0.50712,-0.264583 0.27892,0 0.54681,-0.09337 0.59531,-0.207479 0.12793,-0.300961 3.8515,-2.036471 5.24757,-2.445832 0.65485,-0.192013 1.30374,-0.447476 1.44198,-0.567695 0.13825,-0.120219 0.62045,-0.218578 1.07156,-0.218578 0.45112,0 0.93332,-0.107518 1.07157,-0.238932 0.65997,-0.627356 7.23017,-1.036254 21.94718,-1.365887 7.42157,-0.16623 15.39875,-0.393899 17.72709,-0.505934 7.94242,-0.382172 15.07895,-0.785093 16.66875,-0.941102 0.87312,-0.08568 3.13531,-0.271854 5.02708,-0.413715 4.93189,-0.369843 8.27546,-0.714574 15.08125,-1.554922 3.77134,-0.465667 10.938,-1.487914 13.09688,-1.868125 0.80036,-0.140957 1.99099,-0.324255 2.64583,-0.407326 0.65484,-0.08307 1.42875,-0.254021 1.71979,-0.379892 0.29104,-0.125867 0.94589,-0.290115 1.45521,-0.364995 1.86838,-0.27468 2.79023,-0.467122 3.30729,-0.69042 0.29104,-0.125687 0.88636,-0.284858 1.32292,-0.353713 0.43656,-0.06885 1.98437,-0.445418 3.43958,-0.836814 1.45521,-0.391392 2.91548,-0.774107 3.24506,-0.850474 0.32957,-0.07637 0.66402,-0.243694 0.74321,-0.37184 0.0792,-0.128145 0.42761,-0.232992 0.77423,-0.232992 0.34663,0 0.70381,-0.119062 0.79375,-0.264583 0.0899,-0.145521 0.39462,-0.264584 0.67708,-0.264584 0.28245,0 0.51355,-0.119062 0.51355,-0.264583 0,-0.145521 0.23109,-0.264583 0.51355,-0.264583 0.28245,0 0.58713,-0.119063 0.67707,-0.264583 0.0899,-0.145521 0.39462,-0.264584 0.67707,-0.264584 0.28246,0 0.51356,-0.119062 0.51356,-0.2645831 0,-0.145521 0.23812,-0.264583 0.52916,-0.264583 0.29104,0 0.52917,-0.111041 0.52917,-0.246754 0,-0.135715 0.26789,-0.33035 0.59531,-0.432524 0.50255,-0.156824 2.5828,-1.713114 3.51119,-2.626823 0.91228,-0.897851 2.29456,-2.885382 3.03702,-4.366816 0.47405,-0.945885 0.96569,-1.926534 1.09253,-2.179222 0.12684,-0.252688 0.23062,-0.734891 0.23062,-1.071563 0,-0.336671 0.13608,-0.748215 0.3024,-0.9145397 0.42951,-0.4295061 0.4093,-6.5228599 -0.0261,-7.8732162 -0.18769,-0.582084 -0.4457,-1.265078 -0.57336,-1.517765 -0.12765,-0.252686 -0.2321,-0.699171 -0.2321,-0.992187 0,-0.293016 -0.11906,-0.532757 -0.26458,-0.532757 -0.14553,0 -0.26459,-0.238125 -0.26459,-0.529166 0,-0.291042 -0.0893,-0.530533 -0.19844,-0.532203 -0.10914,-0.0017 -0.42192,-0.469629 -0.69506,-1.039911 -0.27314,-0.570282 -0.95775,-1.546416 -1.52135,-2.169187 -1.09392,-1.208767 -1.32494,-2.249958 -0.56171,-2.531558 0.25466,-0.09396 0.56138,-0.298582 0.6816,-0.454717 0.15186,-0.197233 0.25954,-0.182934 0.35278,0.04685 0.0815,0.200777 0.63921,0.330729 1.41945,0.330729 0.70689,0 1.34933,0.103676 1.42764,0.230391 0.0783,0.126714 0.71042,0.300228 1.40468,0.385586 0.69426,0.08536 1.73854,0.272581 2.32062,0.416051 0.58208,0.143469 1.65365,0.391486 2.38125,0.551147 0.7276,0.159662 1.52966,0.404544 1.78235,0.544184 0.25269,0.13964 0.69214,0.253891 0.97657,0.253891 0.28443,0 0.59073,0.119063 0.68066,0.264583 0.0899,0.145521 0.44713,0.264584 0.79375,0.264584 0.34663,0 0.70382,0.119062 0.79375,0.264583 0.0899,0.145521 0.44713,0.264583 0.79375,0.264583 0.34663,0 0.70382,0.119063 0.79375,0.264584 0.0899,0.145521 0.39462,0.264583 0.67708,0.264583 0.28245,0 0.51355,0.09307 0.51355,0.206821 0,0.113751 0.56555,0.371897 1.25677,0.573658 0.69122,0.20176 1.43536,0.455292 1.65365,0.563403 0.21828,0.108111 1.5875,0.768793 3.0427,1.468182 3.08664,1.483471 6.84052,3.5634568 6.96736,3.8605429 0.0485,0.1136078 0.30648,0.2065596 0.57327,0.2065596 0.26679,0 0.52475,0.096228 0.57326,0.2138395 0.0485,0.1176117 0.68351,0.6187011 1.41111,1.1135317 0.72761,0.4948309 1.44198,0.9923687 1.5875,1.1056398 1.21201,0.9434062 2.81303,2.0649056 2.94783,2.0649056 0.0908,0 0.35767,0.2088462 0.59301,0.464103 0.23535,0.2552567 1.02323,0.9398529 1.75083,1.5213277 0.7276,0.5814721 1.8102,1.5334851 2.40578,2.1155841 0.59557,0.582096 1.36948,1.308902 1.71979,1.615122 1.08468,0.948172 5.10249,5.214324 5.82975,6.190113 0.37962,0.509322 1.11993,1.402291 1.64515,1.984375 0.52523,0.582083 0.95771,1.1391261 0.9611,1.2378711 0.003,0.09875 0.16063,0.336873 0.34943,0.529167 0.18884,0.192296 0.74745,0.944941 1.24138,1.672545 0.49395,0.727604 0.9943,1.362604 1.11191,1.41111 0.11761,0.04851 0.21383,0.234416 0.21383,0.413131 0,0.178715 0.22355,0.564899 0.49681,0.858187 0.27324,0.293288 0.57891,0.79199 0.67929,1.108223 0.10036,0.316235 0.29353,0.574974 0.42924,0.574974 0.1357,0 0.24675,0.238125 0.24675,0.529166 0,0.291042 0.097,0.529167 0.2155,0.529167 0.11851,0 0.489,0.506016 0.82328,1.124479 1.98075,3.664537 2.4008,4.513231 2.4008,4.85062 0,0.206195 0.11906,0.374901 0.26458,0.374901 0.14553,0 0.26459,0.238125 0.26459,0.529167 0,0.291041 0.11906,0.529166 0.26458,0.529166 0.14552,0 0.26458,0.180211 0.26458,0.400466 0,0.220255 0.10518,0.607208 0.23371,0.859895 0.72602,1.427158 2.37046,5.818254 2.57694,6.881083 0.0925,0.475969 0.2718,0.929481 0.39854,1.007803 0.12671,0.07832 0.2304,0.485534 0.2304,0.90492 0,0.419385 0.11906,0.836104 0.26458,0.926041 0.14552,0.08994 0.26458,0.506656 0.26458,0.926042 0,0.419386 0.11907,0.836104 0.26459,0.926042 0.14552,0.08994 0.26458,0.573214 0.26458,1.073949 0,0.500734 0.10708,0.910426 0.23794,0.910426 0.13086,0 0.30385,0.506015 0.38441,1.124479 0.0806,0.618463 0.2752,1.838854 0.43252,2.711979 1.27188,7.059385 1.30606,8.487616 1.31654,54.978625 l 0.01,43.601535 1.53784,1.50991 c 1.57122,1.54272 4.01841,4.77879 4.01841,5.31383 0,0.16343 0.11906,0.29713 0.26458,0.29713 0.14552,0 0.26458,0.23813 0.26458,0.52917 0,0.29104 0.091,0.52917 0.20217,0.52917 0.41778,0 1.79732,3.77462 2.1041,5.75714 0.0734,0.47429 0.23937,0.9278 0.3688,1.0078 0.12944,0.08 0.23535,0.66718 0.23535,1.30485 0,0.63767 0.11906,1.23298 0.26458,1.32292 0.14553,0.0899 0.26459,1.10196 0.26459,2.24895 0,1.14699 0.11906,2.15903 0.26458,2.24896 0.33261,0.20556 0.35489,6.28198 0.0243,6.62781 -0.13216,0.13825 -0.30824,1.26339 -0.39132,2.50032 -0.21547,3.20826 -0.41968,4.81647 -0.68873,5.42396 -0.12891,0.29104 -0.29485,0.94588 -0.36878,1.4552 -0.19751,1.3608 -0.80102,4.06016 -0.97602,4.36563 -0.0834,0.14552 -0.31245,0.80036 -0.50903,1.45521 -0.19659,0.65484 -0.4558,1.30373 -0.57603,1.44198 -0.1202,0.13824 -0.21857,0.52519 -0.21857,0.85989 0,0.3347 -0.11906,0.60854 -0.26458,0.60854 -0.14552,0 -0.26459,0.29766 -0.26459,0.66146 0,0.3638 -0.11906,0.66146 -0.26458,0.66146 -0.14552,0 -0.26458,0.23813 -0.26458,0.52917 0,0.29104 -0.11906,0.52916 -0.26459,0.52916 -0.14552,0 -0.26458,0.17534 -0.26458,0.38964 0,0.48874 -1.36046,3.41583 -1.64301,3.53502 -0.11499,0.0485 -0.20907,0.31639 -0.20907,0.59531 0,0.27891 -0.11906,0.50712 -0.26459,0.50712 -0.14552,0 -0.26458,0.17859 -0.26458,0.39687 0,0.21828 -0.11906,0.39688 -0.26458,0.39688 -0.14552,0 -0.26459,0.15614 -0.26459,0.34698 0,0.19084 -0.23812,0.60258 -0.52916,0.91498 -0.29104,0.3124 -0.52917,0.69706 -0.52917,0.85481 0,0.15774 -0.11866,0.43061 -0.26368,0.60637 -0.14502,0.17576 -0.82741,1.09347 -1.51644,2.03936 -0.689,0.94588 -1.374,1.84896 -1.52225,2.00684 -0.14822,0.15788 -0.50763,0.62735 -0.79867,1.04327 -0.48702,0.69597 -7.2122,7.50231 -8.16234,8.26082 -0.22786,0.18191 -0.49464,0.33073 -0.59285,0.33073 -0.0982,0 -0.37114,0.21401 -0.60648,0.47558 -0.23535,0.26156 -0.84463,0.76184 -1.35396,1.11173 -0.50932,0.34988 -0.98557,0.70254 -1.05833,0.78367 -0.28358,0.31623 -2.38352,1.59777 -2.6181,1.59777 -0.13653,0 -0.2879,0.0893 -0.33642,0.19844 -0.14134,0.31802 -1.44915,1.041 -4.98298,2.75465 -4.32609,2.09784 -5.18914,2.47423 -6.61458,2.88475 -0.65485,0.18859 -1.30969,0.42997 -1.45521,0.53639 -0.14552,0.10642 -0.8599,0.31148 -1.5875,0.45568 -0.7276,0.14421 -2.01334,0.45241 -2.85718,0.6849 -0.84384,0.23248 -1.93815,0.42269 -2.43178,0.42269 -0.49364,0 -0.96087,0.10251 -1.0383,0.22779 -0.27007,0.43699 -3.77217,0.66331 -10.07691,0.65121 -6.49678,-0.0125 -9.85961,-0.22201 -10.30552,-0.64216 -0.13821,-0.13026 -0.686,-0.23684 -1.21726,-0.23684 -0.53126,0 -1.31112,-0.10673 -1.73302,-0.23717 -0.4219,-0.13046 -1.48146,-0.43499 -2.35459,-0.67675 -3.45166,-0.95574 -5.42137,-1.60886 -5.42263,-1.79806 -7.3e-4,-0.10914 -0.29898,-0.19843 -0.66278,-0.19843 -0.3638,0 -0.66146,-0.11907 -0.66146,-0.26459 0,-0.14552 -0.18021,-0.26458 -0.40047,-0.26458 -0.22025,0 -0.6072,-0.10643 -0.85989,-0.23652 -0.25269,-0.13008 -1.65006,-0.81158 -3.10527,-1.51443 -1.4552,-0.70285 -2.68552,-1.37032 -2.73402,-1.48327 -0.0485,-0.11295 -0.25687,-0.20536 -0.46302,-0.20536 -0.20616,0 -0.37483,-0.11907 -0.37483,-0.26459 0,-0.14552 -0.23813,-0.26458 -0.52917,-0.26458 -0.29104,0 -0.52916,-0.10462 -0.52916,-0.23248 0,-0.12787 -0.35719,-0.38044 -0.79375,-0.56127 -0.43657,-0.18083 -0.79375,-0.42538 -0.79375,-0.54344 0,-0.11806 -0.20836,-0.28163 -0.46302,-0.3635 -0.25467,-0.0819 -0.87974,-0.50633 -1.38907,-0.94325 -0.50932,-0.43692 -1.03114,-0.79468 -1.15959,-0.79502 -0.12845,-2.7e-4 -0.42611,-0.21318 -0.66145,-0.47297 -0.23536,-0.25979 -1.01657,-0.9444 -1.73603,-1.52136 -1.69955,-1.3629 -5.54598,-5.20046 -6.89339,-6.87748 -0.58121,-0.7234 -1.26559,-1.50783 -1.52085,-1.74318 -0.25526,-0.23535 -0.46425,-0.53301 -0.46443,-0.66146 -1.7e-4,-0.12845 -0.26806,-0.55097 -0.59531,-0.93892 -0.32724,-0.38796 -0.79741,-0.94792 -1.0448,-1.24437 -0.2474,-0.29645 -0.65097,-0.93153 -0.89682,-1.41129 -0.24585,-0.47977 -0.51987,-0.93183 -0.60894,-1.00459 -0.0891,-0.0728 -0.34015,-0.48948 -0.55797,-0.92604 -0.21782,-0.43657 -0.45575,-0.85329 -0.52875,-0.92605 -0.11465,-0.11428 -0.97682,-1.66142 -1.62189,-2.91041 -0.11274,-0.21828 -0.40172,-0.87313 -0.64219,-1.45521 -0.24047,-0.58208 -0.67804,-1.59412 -0.97238,-2.24896 -0.29434,-0.65484 -0.65303,-1.48828 -0.7971,-1.85208 -0.14406,-0.36381 -0.3671,-0.8682 -0.49564,-1.12089 -0.12854,-0.25269 -0.23372,-0.69215 -0.23372,-0.97657 0,-0.28443 -0.11906,-0.59073 -0.26458,-0.68067 -0.14552,-0.0899 -0.26458,-0.43431 -0.26458,-0.76527 0,-0.33095 -0.0893,-0.69067 -0.19844,-0.79936 -0.21961,-0.21869 -0.82039,-2.87123 -1.02393,-4.52078 -0.0718,-0.58209 -0.23715,-1.29646 -0.36739,-1.5875 -0.266,-0.59443 -0.4657,-2.2937 -0.68926,-5.86516 -0.14841,-2.37103 -0.16911,-2.43272 -0.92078,-2.74407 -0.42292,-0.17518 -0.76895,-0.42313 -0.76895,-0.551 0,-0.12786 -0.1786,-0.23248 -0.39688,-0.23248 -0.21828,0 -0.39687,-0.11907 -0.39687,-0.26459 0,-0.14552 -0.12738,-0.26458 -0.28306,-0.26458 -0.15568,0 -0.80221,-0.35719 -1.43673,-0.79375 -0.63453,-0.43656 -1.32785,-0.79375 -1.54072,-0.79375 -0.21288,0 -0.45932,-0.18833 -0.54764,-0.41851 -0.0883,-0.23019 -0.1606,-3.98066 -0.1606,-8.33438 v -7.91586 h 0.91042 c 0.50074,0 0.98401,0.11906 1.07395,0.26458 0.0899,0.14553 0.39624,0.26459 0.68067,0.26459 0.28442,0 0.72388,0.10684 0.97657,0.23742 0.25269,0.13058 0.96544,0.42824 1.58391,0.66146 0.61846,0.23322 1.6033,0.62187 2.18852,0.86367 1.01677,0.4201 1.08105,0.41716 1.44679,-0.0662 0.21052,-0.27818 0.38654,-0.6478 0.39117,-0.82138 0.0104,-0.39076 1.10555,-2.29786 1.38875,-2.41842 0.11394,-0.0485 0.20716,-0.3164 0.20716,-0.59532 0,-0.27891 0.0934,-0.50712 0.20754,-0.50712 0.11415,0 0.4331,-0.38695 0.7088,-0.85989 0.27569,-0.47294 0.71808,-1.05246 0.98309,-1.28781 0.265,-0.23535 0.48182,-0.51257 0.48182,-0.61605 0,-0.18662 1.33863,-1.51907 2.80762,-2.79468 1.67781,-1.45693 6.34554,-4.23115 7.11908,-4.23115 0.19137,0 0.38764,-0.0946 0.43615,-0.21021 0.0829,-0.19767 3.73809,-1.40093 5.77674,-1.90168 0.50932,-0.12511 1.4161,-0.35595 2.01507,-0.51299 0.59896,-0.15705 1.55742,-0.28554 2.12989,-0.28554 0.57248,0 1.15398,-0.10903 1.29222,-0.24229 0.13825,-0.13326 0.96573,-0.30053 1.83886,-0.37172 9.4652,-0.77174 11.83613,-0.84115 28.70729,-0.8404 16.78665,7.9e-4 19.46539,0.0786 28.77344,0.83586 l 1.65364,0.13454 v -21.6592 c 0,-13.45579 -0.10472,-22.508365 -0.27651,-23.901215 -0.27266,-2.210823 -0.68879,-3.854126 -1.10041,-4.34546 -0.11583,-0.138245 -0.21058,-0.465667 -0.21058,-0.727604 0,-0.261938 -0.11906,-0.47625 -0.26458,-0.47625 -0.14552,0 -0.26459,-0.228203 -0.26459,-0.507119 0,-0.278913 -0.0975,-0.546804 -0.21679,-0.595313 -0.11923,-0.04851 -0.71769,-0.830431 -1.32991,-1.737611 -0.61219,-0.90718 -1.43737,-1.958702 -1.83372,-2.336721 -0.92173,-0.879128 -4.44619,-3.289903 -4.8097,-3.289903 -0.15211,0 -0.27654,-0.09307 -0.27654,-0.206819 0,-0.113753 -0.56555,-0.369184 -1.25677,-0.567627 -0.69123,-0.198443 -1.40129,-0.473562 -1.57792,-0.611375 -0.17664,-0.137811 -1.50681,-0.315899 -2.95595,-0.395753 -2.566,-0.141394 -2.66641,-0.125212 -3.84556,0.619757 -0.66593,0.420719 -1.21099,0.854239 -1.21124,0.96338 -2.7e-4,0.10914 -0.21232,0.198437 -0.47124,0.198437 -0.25891,0 -0.64238,0.238125 -0.85215,0.529167 -0.20978,0.291042 -0.53869,0.529167 -0.73093,0.529167 -0.19225,0 -0.57669,0.208359 -0.85433,0.46302 -0.27764,0.254662 -1.1954,0.815724 -2.03946,1.246807 -0.84406,0.43108 -1.59419,0.857337 -1.66695,0.947237 -0.0728,0.0899 -0.51925,0.331809 -0.99219,0.537573 -0.47294,0.205766 -0.85989,0.464119 -0.85989,0.574117 0,0.109997 -0.22821,0.199995 -0.50712,0.199995 -0.27892,0 -0.54681,0.09418 -0.59532,0.209278 -0.11497,0.272814 -5.01466,2.704174 -5.446,2.702457 -0.1819,-7.25e-4 -0.33073,0.117745 -0.33073,0.263265 0,0.145521 -0.23813,0.264584 -0.52917,0.264584 -0.29104,0 -0.52916,0.119062 -0.52916,0.264583 0,0.145521 -0.15842,0.264583 -0.35204,0.264583 -0.19362,0 -0.92246,0.288785 -1.61964,0.641745 -0.69718,0.352959 -1.78893,0.795673 -2.42609,0.983805 -0.63717,0.188132 -1.15848,0.435129 -1.15848,0.548881 0,0.11375 -0.2311,0.206819 -0.51356,0.206819 -0.28245,0 -0.58713,0.119063 -0.67707,0.264584 -0.0899,0.145521 -0.39462,0.264583 -0.67707,0.264583 -0.28246,0 -0.51355,0.119062 -0.51355,0.264583 0,0.145521 -0.29063,0.264588 -0.64585,0.264588 -0.35521,0 -0.71943,0.11906 -0.80936,0.26458 -0.0899,0.14552 -0.45415,0.26458 -0.80937,0.26458 -0.35521,0 -0.64584,0.11906 -0.64584,0.26459 0,0.14552 -0.17443,0.26458 -0.38763,0.26458 -0.47871,0 -2.75486,0.7185 -3.37909,1.06667 -0.25269,0.14093 -0.75871,0.25625 -1.12448,0.25625 -0.36578,0 -0.66505,0.11906 -0.66505,0.26458 0,0.14552 -0.35719,0.26458 -0.79375,0.26458 -0.43656,0 -0.79375,0.11906 -0.79375,0.26459 0,0.14552 -0.35016,0.26458 -0.77814,0.26458 -0.42797,0 -0.85172,0.11906 -0.94165,0.26458 -0.0899,0.14552 -0.42439,0.26632 -0.74322,0.26844 -0.31884,0.002 -1.11548,0.19181 -1.77032,0.42155 -0.65485,0.22974 -1.96454,0.59386 -2.91042,0.80916 -0.94589,0.2153 -2.19604,0.51154 -2.77813,0.65832 -0.58208,0.14678 -1.53458,0.3289 -2.11666,0.40472 -0.58209,0.0758 -1.17144,0.24471 -1.30969,0.37533 -0.13824,0.13061 -0.73951,0.23748 -1.33615,0.23748 -0.59663,0 -1.1979,0.10687 -1.33614,0.23748 -0.13825,0.13062 -0.72761,0.3036 -1.30969,0.3844 -0.58208,0.0808 -1.80247,0.2716 -2.71198,0.42398 -3.68447,0.61731 -5.08995,0.80793 -7.87135,1.06757 -1.60073,0.14943 -3.86292,0.41629 -5.02709,0.59302 -2.97421,0.45152 -24.77316,0.45426 -28.17812,0.004 -1.38245,-0.18299 -3.7637,-0.45476 -5.29167,-0.60393 -1.52797,-0.14917 -3.4925,-0.38649 -4.36562,-0.52737 -0.87313,-0.14089 -2.18281,-0.32386 -2.91042,-0.40659 -0.7276,-0.0827 -1.56104,-0.25448 -1.85208,-0.38166 -0.29104,-0.12718 -1.00542,-0.29147 -1.5875,-0.36509 -1.47757,-0.18689 -4.50514,-0.80337 -7.27604,-1.48157 -0.65485,-0.16028 -1.78594,-0.4119 -2.51355,-0.55915 -0.7276,-0.14725 -1.98568,-0.49888 -2.79574,-0.78138 -0.81005,-0.28252 -1.72576,-0.51366 -2.0349,-0.51366 -0.30915,0 -0.63567,-0.11907 -0.72561,-0.26459 -0.0899,-0.14552 -0.51368,-0.26458 -0.94165,-0.26458 -0.42798,0 -0.77814,-0.11906 -0.77814,-0.26458 0,-0.14553 -0.29927,-0.26459 -0.66505,-0.26459 -0.36577,0 -0.87179,-0.11577 -1.12447,-0.25726 -0.25269,-0.1415 -1.76912,-0.6821 -3.36985,-1.20134 -1.60073,-0.51924 -3.11716,-1.05832 -3.36985,-1.19794 -0.25269,-0.13963 -0.63964,-0.25387 -0.85989,-0.25387 -0.22026,0 -0.40047,-0.119067 -0.40047,-0.264588 0,-0.145521 -0.29063,-0.264583 -0.64584,-0.264583 -0.35522,0 -0.71943,-0.119062 -0.80937,-0.264583 -0.0899,-0.145521 -0.39462,-0.264584 -0.67707,-0.264584 -0.28246,0 -0.51355,-0.119062 -0.51355,-0.264583 0,-0.145521 -0.2311,-0.264583 -0.51355,-0.264583 -0.28246,0 -0.58714,-0.119063 -0.67708,-0.264584 -0.0899,-0.14552 -0.36485,-0.265316 -0.61093,-0.266213 -0.24607,-7.94e-4 -0.78843,-0.17949 -1.20525,-0.396875 -0.41682,-0.217384 -0.92283,-0.395245 -1.12448,-0.395245 -0.20165,0 -0.36663,-0.119062 -0.36663,-0.264583 0,-0.145521 -0.14883,-0.265819 -0.33073,-0.26733 -0.26786,-0.0021 -3.32618,-1.494613 -8.86148,-4.324199 -0.32628,-0.166796 -0.59417,-0.39256 -0.59531,-0.5017 -0.001,-0.109141 -0.24019,-0.198438 -0.53123,-0.198438 -0.29104,0 -0.52917,-0.119062 -0.52917,-0.264583 0,-0.145521 -0.13044,-0.264584 -0.28988,-0.264584 -0.15944,0 -0.60592,-0.219368 -0.99219,-0.487486 -0.38626,-0.268119 -1.35715,-0.832758 -2.15751,-1.254752 -0.80036,-0.421998 -1.51474,-0.833443 -1.5875,-0.914324 -0.0728,-0.08088 -0.50786,-0.409212 -0.96689,-0.729623 -1.82502,-1.273907 -3.63954,-0.254587 -2.73728,1.537693 0.14552,0.289067 0.38365,0.762084 0.52917,1.051152 0.14552,0.289068 0.26458,0.758291 0.26458,1.042718 0,0.284429 0.11907,0.590727 0.26459,0.680664 0.14552,0.08994 0.26458,0.513683 0.26458,0.941658 0,0.427974 0.10707,0.778134 0.23794,0.778134 0.25922,0 0.36789,0.691954 0.83394,5.310105 0.22809,2.260109 0.23401,3.852529 0.0226,6.085419 -0.39033,4.12317 -0.57794,5.3615 -0.85702,5.65687 -0.13061,0.13825 -0.23748,0.5777 -0.23748,0.97657 0,0.398865 -0.11906,0.798805 -0.26458,0.888735 -0.14552,0.0899 -0.26459,0.44713 -0.26459,0.79375 0,0.34663 -0.11906,0.70382 -0.26458,0.79375 -0.14552,0.0899 -0.26458,0.39462 -0.26458,0.67708 0,0.28245 -0.11906,0.51355 -0.26459,0.51355 -0.14552,0 -0.26458,0.19586 -0.26458,0.43526 0,0.53861 -1.84135,4.42653 -2.15384,4.54772 -0.12508,0.0485 -0.22741,0.25687 -0.22741,0.46302 0,0.20616 -0.0989,0.37483 -0.21987,0.37483 -0.12093,0 -0.38863,0.32742 -0.59489,0.72761 -0.20626,0.40018 -0.44104,0.78713 -0.52172,0.85989 -0.0807,0.0728 -0.49759,0.60495 -0.92646,1.18264 -0.95787,1.29026 -4.41641,4.78432 -5.6748,5.73308 -0.50919,0.3839 -1.28299,1.01149 -1.71955,1.39465 -0.43656,0.38315 -1.24023,0.89564 -1.78594,1.13885 -0.5457,0.24321 -0.99219,0.53835 -0.99219,0.65587 0,0.11751 -0.23812,0.21366 -0.52916,0.21366 -0.29104,0 -0.52917,0.09 -0.52917,0.2 0,0.11 -0.38695,0.36644 -0.85989,0.56987 -0.47295,0.20344 -1.39568,0.60155 -2.05053,0.88471 -1.4406,0.62292 -2.08078,0.88357 -2.77812,1.13113 -0.83619,0.29685 -3.81021,0.92254 -5.66091,1.19097 -2.16138,0.3135 -2.72801,0.49883 -3.12706,1.02276 -0.2208,0.28991 -0.32599,1.69363 -0.33174,4.42702 -0.01,4.66378 0.0696,4.84577 1.91161,4.38087 2.1089,-0.53226 8.79419,-0.71045 26.65497,-0.71045 19.31242,0 25.50512,0.27473 32.01458,1.4203 0.80037,0.14085 1.99099,0.34146 2.64584,0.44581 0.65484,0.10435 1.30969,0.27925 1.45521,0.38866 0.14552,0.10942 0.79578,0.28665 1.44503,0.39386 0.64925,0.1072 1.39339,0.29926 1.65364,0.42679 0.26026,0.12753 0.70971,0.35093 0.99878,0.49645 0.28907,0.14552 0.76532,0.26458 1.05833,0.26458 0.29302,0 0.53276,0.11907 0.53276,0.26459 0,0.14552 0.23812,0.26458 0.52916,0.26458 0.29105,0 0.52917,0.11906 0.52917,0.26458 0,0.14553 0.17497,0.26459 0.38883,0.26459 0.59129,0 4.41845,2.23705 4.59416,2.68538 0.0485,0.12377 0.2013,0.22503 0.33955,0.22503 0.13824,0 0.65215,0.38696 1.14201,0.8599 0.48986,0.47294 1.54061,1.47916 2.33498,2.23605 0.79438,0.75688 1.59469,1.73915 1.77846,2.18281 0.18377,0.44366 0.43874,0.80666 0.56661,0.80666 0.12787,0 0.23248,0.17859 0.23248,0.39688 0,0.21828 0.0962,0.39687 0.21369,0.39687 0.1982,0 1.90298,3.18958 1.90298,3.5604 0,0.0914 0.14183,0.31793 0.31517,0.5035 0.25379,0.27167 0.55012,0.21818 1.52136,-0.27465 0.6634,-0.33662 1.35662,-0.61253 1.5405,-0.61314 0.18387,-5.3e-4 0.54106,-0.10628 0.79375,-0.23482 0.75271,-0.38291 1.74724,-0.7722 2.31151,-0.90481 0.29104,-0.0684 0.73753,-0.21014 0.99219,-0.31498 0.3523,-0.14503 0.46302,-0.061 0.46302,0.35124 z m -57.94138,53.04901 c 0.65484,-0.13181 1.905,-0.37872 2.77813,-0.54869 2.12468,-0.41363 4.62599,-1.03392 5.35781,-1.32867 0.32742,-0.13188 0.92273,-0.37477 1.32291,-0.53976 0.40019,-0.16499 1.02526,-0.41701 1.38907,-0.56003 0.3638,-0.14303 0.8682,-0.36523 1.12089,-0.49377 0.25268,-0.12854 0.63964,-0.23371 0.85989,-0.23371 0.22026,0 0.40047,-0.10616 0.40047,-0.2359 0,-0.12975 0.29523,-0.31 0.65607,-0.40057 0.36084,-0.0906 1.25904,-0.52019 1.99602,-0.95472 0.73697,-0.43453 1.45377,-0.79006 1.59288,-0.79006 0.13912,0 0.25399,-0.0893 0.25526,-0.19844 0.001,-0.10914 0.74541,-0.67269 1.65364,-1.25233 0.90824,-0.57963 1.80867,-1.20471 2.00096,-1.38906 0.1923,-0.18434 0.43042,-0.33621 0.52917,-0.33747 0.0987,-0.001 0.61807,-0.41798 1.15406,-0.92604 0.53599,-0.50806 1.05947,-0.92375 1.16328,-0.92375 0.18026,0 3.69522,-3.55844 5.18516,-5.2493 1.00752,-1.14339 4.71558,-6.54614 4.71558,-6.87075 0,-0.14919 0.0893,-0.31095 0.19844,-0.35946 0.1897,-0.0843 0.87814,-1.45362 2.17272,-4.32153 0.32844,-0.7276 0.7032,-1.52966 0.8328,-1.78235 0.12959,-0.25268 0.23562,-0.63964 0.23562,-0.85989 0,-0.22026 0.11907,-0.40047 0.26459,-0.40047 0.14552,0 0.26458,-0.29927 0.26458,-0.66504 0,-0.36578 0.11425,-0.8718 0.25389,-1.12448 0.13964,-0.25269 0.38559,-1.05475 0.54656,-1.78235 0.16096,-0.72761 0.41167,-1.8587 0.55713,-2.51354 0.65062,-2.92908 0.82513,-4.95999 0.82983,-9.65729 0.006,-6.27555 -0.49329,-9.06756 -2.23998,-12.51924 -0.79388,-1.56882 -3.78116,-4.58825 -5.30524,-5.36236 -0.69123,-0.35108 -1.25677,-0.72783 -1.25677,-0.83722 0,-0.10939 -0.18021,-0.19889 -0.40047,-0.19889 -0.22025,0 -0.60721,-0.10517 -0.85989,-0.23372 -1.35731,-0.69046 -3.20183,-1.25353 -5.35423,-1.63445 -7.59232,-1.34366 -9.63382,-1.43523 -31.88229,-1.43009 -22.3919,0.005 -26.20353,0.19221 -32.27916,1.58387 -1.01865,0.23333 -2.23904,0.48942 -2.71198,0.56909 -0.47295,0.0797 -0.8599,0.2509 -0.8599,0.3805 0,0.12959 -0.2311,0.23563 -0.51355,0.23563 -0.28245,0 -0.58714,0.11906 -0.67707,0.26458 -0.0899,0.14553 -0.39462,0.26459 -0.67708,0.26459 -0.28245,0 -0.51355,0.11906 -0.51355,0.26458 0,0.14552 -0.23812,0.26458 -0.52917,0.26458 -0.29104,0 -0.52916,0.10462 -0.52916,0.23249 0,0.12786 -0.34744,0.3764 -0.77209,0.55229 -0.80872,0.33498 -4.255,3.76522 -4.255,4.23519 0,0.14943 -0.09,0.2717 -0.19999,0.2717 -0.11,0 -0.35592,0.38695 -0.5465,0.8599 -0.19057,0.47294 -0.45626,1.06423 -0.59041,1.31397 -0.24377,0.45381 -0.54867,1.5532 -1.12152,4.04384 -0.41436,1.80157 -0.40925,11.95008 0.007,14.15521 0.17861,0.94588 0.51165,2.55323 0.74009,3.57187 0.22844,1.01865 0.48252,2.18097 0.56462,2.58293 0.0821,0.40196 0.2546,0.79594 0.38335,0.87551 0.12874,0.0796 0.23407,0.42827 0.23407,0.7749 0,0.34662 0.11907,0.70381 0.26459,0.79375 0.14552,0.0899 0.26458,0.45415 0.26458,0.80936 0,0.35521 0.11906,0.64584 0.26458,0.64584 0.14552,0 0.26459,0.23813 0.26459,0.52917 0,0.29104 0.11906,0.52917 0.26458,0.52917 0.14552,0 0.26458,0.23109 0.26458,0.51355 0,0.28245 0.11907,0.58713 0.26459,0.67707 0.14552,0.0899 0.26458,0.3847 0.26458,0.65503 0,0.27032 0.0893,0.53119 0.19844,0.5797 0.10914,0.0485 0.55498,0.80256 0.99077,1.67569 0.43578,0.87312 0.85269,1.64703 0.92646,1.71979 0.0738,0.0728 0.30289,0.45971 0.50915,0.8599 0.20626,0.40018 0.47396,0.7276 0.59489,0.7276 0.12093,0 0.21987,0.12404 0.21987,0.27565 0,0.1516 0.24823,0.53856 0.55162,0.85989 0.30339,0.32134 0.7246,0.91445 0.93602,1.31802 0.5,0.95442 1.27764,1.83245 4.3593,4.92209 2.9207,2.92827 3.64295,3.56676 5.27463,4.66289 0.64986,0.43656 1.39193,0.98307 1.64904,1.21445 0.25712,0.23139 0.7929,0.58839 1.19063,0.79333 0.39773,0.20495 0.78267,0.43235 0.85543,0.50534 0.19669,0.19732 2.32817,1.35009 3.83646,2.07487 0.7276,0.34963 1.52966,0.74029 1.78234,0.86812 0.25269,0.12784 0.63965,0.23243 0.8599,0.23243 0.22026,0 0.40047,0.11907 0.40047,0.26459 0,0.14552 0.23109,0.26458 0.51355,0.26458 0.28245,0 0.58713,0.11906 0.67707,0.26458 0.0899,0.14552 0.44713,0.26459 0.79375,0.26459 0.34663,0 0.69533,0.10533 0.7749,0.23407 0.0796,0.12875 0.47355,0.30125 0.87551,0.38335 0.40196,0.0821 1.56428,0.34223 2.58292,0.57808 3.18888,0.73833 4.42158,0.94426 7.01146,1.17131 2.8823,0.25268 9.61525,0.10492 11.37709,-0.24968 z m 155.575,0.24902 c 3.17127,-0.25616 4.44496,-0.4539 7.54062,-1.17065 1.01865,-0.23585 2.18097,-0.49598 2.58293,-0.57808 0.40196,-0.0821 0.79594,-0.2546 0.87551,-0.38335 0.0796,-0.12874 0.4353,-0.23407 0.79051,-0.23407 0.35523,0 0.64585,-0.11907 0.64585,-0.26459 0,-0.14552 0.20878,-0.26458 0.46394,-0.26458 0.25517,0 1.29696,-0.39875 2.31511,-0.88612 1.01814,-0.48736 2.23811,-1.05221 2.71105,-1.25521 0.47294,-0.203 0.85989,-0.45909 0.85989,-0.56909 0,-0.11 0.23813,-0.2 0.52917,-0.2 0.29104,0 0.52917,-0.11906 0.52917,-0.26458 0,-0.14552 0.15613,-0.26458 0.34697,-0.26458 0.19085,0 0.60259,-0.23813 0.91498,-0.52917 0.3124,-0.29104 0.63506,-0.52917 0.71703,-0.52917 0.24354,0 2.34166,-1.41274 2.94708,-1.98437 0.30824,-0.29104 1.07927,-0.94589 1.71339,-1.45521 2.15077,-1.72752 6.32164,-6.06432 7.28247,-7.57225 0.2671,-0.41917 0.55579,-0.82166 0.64151,-0.89442 0.0857,-0.0728 0.5578,-0.7276 1.04905,-1.4552 0.49125,-0.72761 0.98941,-1.36261 1.10702,-1.41111 0.1176,-0.0485 0.21383,-0.3164 0.21383,-0.59532 0,-0.27891 0.0893,-0.50719 0.19844,-0.50727 0.10914,-9e-5 0.55562,-0.77243 0.99219,-1.71631 0.43656,-0.94388 0.88304,-1.71772 0.99218,-1.71964 0.10914,-0.002 0.19844,-0.2416 0.19844,-0.53265 0,-0.29104 0.11906,-0.52916 0.26458,-0.52916 0.14553,0 0.26459,-0.29766 0.26459,-0.66146 0,-0.3638 0.11906,-0.66146 0.26458,-0.66146 0.14552,0 0.26458,-0.2311 0.26458,-0.51355 0,-0.28245 0.11907,-0.58714 0.26459,-0.67707 0.14552,-0.0899 0.26458,-0.45416 0.26458,-0.80937 0,-0.35521 0.10554,-0.64584 0.23455,-0.64584 0.12902,0 0.2992,-0.32742 0.37823,-0.72761 0.079,-0.40018 0.33062,-1.50151 0.55917,-2.44739 1.26788,-5.2474 1.84713,-9.92651 1.64094,-13.25556 -0.22069,-3.56303 -0.81809,-7.49475 -1.22213,-8.0434 -0.10719,-0.14552 -0.27456,-0.62177 -0.37196,-1.05833 -0.23008,-1.03144 -1.23811,-3.04271 -1.52497,-3.04271 -0.12264,0 -0.223,-0.17083 -0.223,-0.37962 0,-0.48353 -2.73573,-3.23345 -3.43873,-3.45657 -0.29152,-0.0925 -0.53002,-0.27926 -0.53002,-0.41498 0,-0.13571 -0.14882,-0.2494 -0.33072,-0.25263 -0.18191,-0.003 -0.62839,-0.23872 -0.99219,-0.52329 -0.3638,-0.28457 -0.8599,-0.52004 -1.10244,-0.52328 -0.24252,-0.003 -0.48064,-0.10154 -0.52917,-0.21847 -0.11747,-0.28316 -3.39394,-1.28578 -5.37985,-1.64626 -7.48816,-1.35926 -9.3785,-1.4446 -31.88229,-1.43943 -22.28984,0.005 -24.27172,0.0944 -31.75,1.43036 -0.94589,0.16898 -1.92654,0.42026 -2.17922,0.55841 -0.25269,0.13815 -0.75871,0.25117 -1.12448,0.25117 -0.36578,0 -0.66505,0.11907 -0.66505,0.26459 0,0.14552 -0.21439,0.26458 -0.47642,0.26458 -0.59126,0 -1.89997,0.59143 -1.90277,0.8599 -10e-4,0.10914 -0.24019,0.19843 -0.53123,0.19843 -0.29104,0 -0.52916,0.11907 -0.52916,0.26459 0,0.14552 -0.18362,0.26458 -0.40805,0.26458 -0.22442,0 -0.59362,0.14883 -0.82043,0.33073 -0.71412,0.5727 -3.38384,3.21838 -3.80494,3.77066 -0.61902,0.81187 -1.45719,2.74055 -1.95456,4.49757 -0.24716,0.87312 -0.5562,1.94469 -0.68676,2.38125 -0.67043,2.24178 -0.52517,11.09139 0.24756,15.08125 0.14091,0.7276 0.37463,1.95061 0.51937,2.71778 0.28406,1.50556 0.7481,3.09201 1.11945,3.82707 0.12766,0.25268 0.23211,0.69917 0.23211,0.99218 0,0.29302 0.11906,0.53276 0.26458,0.53276 0.14552,0 0.26458,0.20962 0.26458,0.46582 0,0.2562 0.53578,1.56839 1.19063,2.91597 0.65484,1.34759 1.19062,2.56672 1.19062,2.70919 0,0.14246 0.11907,0.25902 0.26459,0.25902 0.14552,0 0.26458,0.23813 0.26458,0.52917 0,0.29104 0.0989,0.52916 0.21987,0.52916 0.12093,0 0.38863,0.32743 0.5949,0.72761 0.20625,0.40018 0.44367,0.78713 0.52758,0.85989 0.0839,0.0728 0.6365,0.84667 1.22796,1.7198 0.59146,0.87312 1.32911,1.88515 1.63922,2.24895 3.02258,3.54592 4.42447,5.00214 6.18792,6.42772 0.57715,0.46658 1.30157,1.08766 1.60981,1.38019 0.30825,0.29253 1.19643,0.93702 1.97374,1.4322 0.77732,0.49518 1.55122,1.02974 1.71979,1.18792 0.16858,0.15818 0.63392,0.45655 1.03411,0.66304 0.40018,0.20649 0.7276,0.47438 0.7276,0.59531 0,0.12093 0.2311,0.21987 0.51355,0.21987 0.28245,0 0.57787,0.10406 0.65647,0.23125 0.19581,0.31682 2.98545,1.62084 3.46742,1.62084 0.2143,0 0.38964,0.11906 0.38964,0.26458 0,0.14552 0.2311,0.26458 0.51355,0.26458 0.28246,0 0.58714,0.11907 0.67708,0.26459 0.0899,0.14552 0.39462,0.26458 0.67707,0.26458 0.28245,0 0.51355,0.11906 0.51355,0.26458 0,0.14552 0.35719,0.26459 0.79375,0.26459 0.43656,0 0.79375,0.10555 0.79375,0.23455 0,0.12901 0.32742,0.29944 0.72761,0.37875 0.40018,0.0793 1.56104,0.33655 2.57968,0.57165 5.69105,1.31345 9.88182,1.63327 15.47813,1.1812 z"
       id="path826"
       inkscape:connector-curvature="0"
       sodipodi:nodetypes="cccscscccccssscccccsssccccccccccsscccccscscsccccscssscscsccccssssccsssccssccccccsssscsscccccscccsssccccccsccccssscscccscccccccsccsscccscccscscsccccccccsscccccccssscscscscssscccssscsscsscsccssscsccscccccssssscssscssssssssccsccccccccccssssscssscsscccccscsssscccccscssscccssssssscsssssscccscccscssscssssscccscssscscccccccccscssscsssscccsscccssscsscccsccccsscscscssccccscccsccccccccccsccssscssssscccscscsscccccssssccscsccccccccssssssscssssssssccccscccscscsccscccscccsssccssssscsccccccsccccccccsscsscscccccsssscscscscsscccccssccscscccscscccsccssscccsscccccscsccccssccssssccsscssscssscssssscccccccscsccccsccscsccscssscscssscssscccsscccssscccccsscsscccscscssscssccccccsssccccccsscccccsssssscsscsssssccccccccccccccssccsccccsscscscsssccccccsscccccsscsssscsscccccscscssssscsccccsscccccccccssscscsccccccscssscssssscsccccccscccssssscsscccccsscscsccccccssscsssccsccccssscsssscccccccccsscssscssssccc" />
    <g
       id="g837"
       transform="translate(278.85406,-10.906906)">
      <path
         sodipodi:nodetypes="acacaccaccacca"
         inkscape:connector-curvature="0"
         id="path828"
         d="m 74.286105,179.53504 c 0.305584,0.33876 1.298375,0.43294 1.298375,0.43294 0,0 7.710197,0.12042 11.535262,0.55357 4.13277,0.46799 12.281356,2.20397 12.281356,2.20397 0,0 1.711252,0.43277 2.270642,-0.0777 0.81703,-0.74566 0.41542,-3.29233 0.41542,-3.29233 l -0.11354,-21.40304 c 0,0 0.0716,-1.38705 -0.38828,-1.78724 -0.63325,-0.55102 -2.511143,-0.18942 -2.511143,-0.18942 l -22.106633,0.71975 c 0,0 -2.261753,-0.20662 -2.979762,0.49961 -0.868012,0.85376 -0.663507,3.59179 -0.663507,3.59179 l 0.375213,16.1124 c 0,0 -0.01629,1.96742 0.586597,2.63574 z"
         style="fill:#ffc200;fill-opacity:1;stroke:none;stroke-width:0.26458332px;stroke-linecap:butt;stroke-linejoin:miter;stroke-opacity:1" />
      <path
         sodipodi:nodetypes="accaccaccacca"
         inkscape:connector-curvature="0"
         id="path830"
         d="m 93.624008,150.2461 c 0.652754,0.41652 0.830882,2.1693 0.830882,2.1693 l 4.699643,29.86406 c 0,0 0.620218,2.49465 -0.10014,3.34743 -0.596195,0.70579 -2.717614,0.54484 -2.717614,0.54484 l -12.709459,0.0932 c 0,0 -2.005665,0.17662 -2.770182,-0.35455 -0.806876,-0.56059 -1.37069,-2.60942 -1.37069,-2.60942 L 71.727635,158.7854 c 0,0 -0.752876,-1.72132 -0.361923,-2.44745 0.313942,-0.5831 1.800697,-0.83936 1.800697,-0.83936 l 17.68902,-5.06095 c 0,0 1.988753,-0.68916 2.768579,-0.19154 z"
         style="fill:#ffc200;fill-opacity:1;stroke:none;stroke-width:0.26458332px;stroke-linecap:butt;stroke-linejoin:miter;stroke-opacity:1" />
      <path
         sodipodi:nodetypes="accacccca"
         inkscape:connector-curvature="0"
         id="path832"
         d="m 80.376277,175.42243 c 0.31661,-0.61833 1.83706,-0.98406 1.83706,-0.98406 l 8.306012,-2.55459 c 0,0 1.885371,-0.54051 2.65129,-0.0984 0.506272,0.29225 0.82015,1.55011 0.82015,1.55011 l 2.345988,12.83622 -12.709458,0.0932 -2.933249,-8.45907 c 0,0 -0.683094,-1.67001 -0.317793,-2.38343 z"
         style="fill:#ffd652;fill-opacity:1;stroke:none;stroke-width:0.26458332px;stroke-linecap:butt;stroke-linejoin:miter;stroke-opacity:1" />
    </g>
  </g>
</svg>
